<?xml version="1.0" standalone="no"?><svg xmlns="http://www.w3.org/2000/svg" viewBox="0 0 1440 320"><path fill="#171717" fill-opacity="1" d="M0,128L18.5,149.3C36.9,171,74,213,111,202.7C147.7,192,185,128,222,85.3C258.5,43,295,21,332,64C369.2,107,406,213,443,218.7C480,224,517,128,554,101.3C590.8,75,628,117,665,122.7C701.5,128,738,96,775,80C812.3,64,849,64,886,96C923.1,128,960,192,997,192C1033.8,192,1071,128,1108,90.7C1144.6,53,1182,43,1218,48C1255.4,53,1292,75,1329,90.7C1366.2,107,1403,117,1422,122.7L1440,128L1440,320L1421.5,320C1403.1,320,1366,320,1329,320C1292.3,320,1255,320,1218,320C1181.5,320,1145,320,1108,320C1070.8,320,1034,320,997,320C960,320,923,320,886,320C849.2,320,812,320,775,320C738.5,320,702,320,665,320C627.7,320,591,320,554,320C516.9,320,480,320,443,320C406.2,320,369,320,332,320C295.4,320,258,320,222,320C184.6,320,148,320,111,320C73.8,320,37,320,18,320L0,320Z"></path></svg>